<svg preserveAspectRatio="none" width="100%" height="100%" overflow="visible" style="display: block;" viewBox="0 0 108.04 23.8832" fill="none" xmlns="http://www.w3.org/2000/svg">
<g id="vanso">
<path id="Vector" d="M96.7739 23.8832C94.701 23.8832 92.8084 23.3499 91.096 22.2835C89.3987 21.217 88.0393 19.79 87.0178 18.0025C86.0114 16.2 85.5082 14.2097 85.5082 12.0317C85.5082 10.3794 85.8012 8.83977 86.387 7.41279C86.9728 5.97078 87.7764 4.70903 88.7978 3.62752C89.8343 2.531 91.0359 1.67481 92.4028 1.05895C93.7697 0.443095 95.2268 0.135169 96.7739 0.135169C98.8468 0.135169 100.732 0.668411 102.429 1.73489C104.142 2.80138 105.501 4.23587 106.507 6.03838C107.529 7.84088 108.04 9.83866 108.04 12.0317C108.04 13.669 107.747 15.2011 107.161 16.6281C106.575 18.0551 105.764 19.3168 104.727 20.4134C103.706 21.4949 102.512 22.3435 101.145 22.9594C99.7931 23.5753 98.3361 23.8832 96.7739 23.8832ZM96.7739 20.0979C98.1859 20.0979 99.4551 19.7299 100.582 18.9939C101.723 18.2428 102.617 17.259 103.263 16.0423C103.924 14.8106 104.254 13.4737 104.254 12.0317C104.254 10.5597 103.916 9.20778 103.24 7.97607C102.579 6.74436 101.686 5.76049 100.559 5.02446C99.4326 4.28844 98.1708 3.92043 96.7739 3.92043C95.3619 3.92043 94.0927 4.29595 92.9661 5.047C91.8395 5.78302 90.9458 6.76689 90.2849 7.9986C89.624 9.23031 89.2935 10.5747 89.2935 12.0317C89.2935 13.5338 89.6315 14.9007 90.3074 16.1324C90.9834 17.3491 91.8921 18.3179 93.0337 19.039C94.1753 19.7449 95.422 20.0979 96.7739 20.0979Z" fill="var(--fill-0, white)"/>
<path id="Vector_2" d="M75.8504 23.7255C74.6337 23.6804 73.447 23.4551 72.2904 23.0496C71.1489 22.629 70.1425 22.0657 69.2712 21.3597C68.4151 20.6387 67.7917 19.8125 67.4011 18.8813L70.6456 17.4843C70.871 17.995 71.2765 18.4757 71.8623 18.9263C72.4482 19.3769 73.1241 19.7374 73.8902 20.0078C74.6562 20.2782 75.4298 20.4134 76.2109 20.4134C77.037 20.4134 77.8106 20.2857 78.5316 20.0304C79.2526 19.775 79.8384 19.3995 80.2891 18.9038C80.7547 18.3931 80.9875 17.7847 80.9875 17.0788C80.9875 16.3277 80.7322 15.7419 80.2215 15.3213C79.7258 14.8857 79.0949 14.5477 78.3288 14.3074C77.5778 14.052 76.8117 13.8117 76.0306 13.5864C74.4835 13.1959 73.1016 12.7302 71.8849 12.1895C70.6682 11.6337 69.7068 10.9352 69.0009 10.094C68.3099 9.23785 67.9644 8.14884 67.9644 6.827C67.9644 5.43005 68.3475 4.22087 69.1135 3.19946C69.8946 2.17804 70.916 1.38944 72.1778 0.833666C73.4395 0.277893 74.7914 7.2889e-06 76.2334 7.2889e-06C78.0509 7.2889e-06 79.7108 0.390549 81.2128 1.17163C82.7149 1.95272 83.834 3.01169 84.57 4.34855L81.5283 6.12853C81.2729 5.58778 80.8824 5.11462 80.3566 4.70905C79.8309 4.28847 79.2301 3.95801 78.5541 3.71767C77.8782 3.47734 77.1872 3.34966 76.4813 3.33464C75.61 3.3046 74.7914 3.41726 74.0253 3.67261C73.2743 3.92797 72.666 4.31851 72.2003 4.84424C71.7497 5.35495 71.5244 5.99334 71.5244 6.7594C71.5244 7.51045 71.7647 8.08124 72.2454 8.47178C72.7411 8.86233 73.3794 9.17777 74.1605 9.4181C74.9566 9.64341 75.8203 9.90628 76.7516 10.2067C78.1185 10.6423 79.3953 11.1455 80.582 11.7163C81.7686 12.2871 82.7224 13.0006 83.4434 13.8568C84.1795 14.713 84.54 15.7719 84.5249 17.0337C84.5249 18.4156 84.1119 19.6248 83.2857 20.6612C82.4596 21.6827 81.3856 22.4637 80.0637 23.0045C78.7569 23.5452 77.3525 23.7856 75.8504 23.7255Z" fill="var(--fill-0, white)"/>
<path id="Vector_3" d="M66.0622 9.28289V23.2974H62.2769V10.1165C62.2769 8.97496 61.999 7.93852 61.4432 7.00722C60.8875 6.07593 60.1439 5.3399 59.2126 4.79915C58.2813 4.24338 57.2449 3.96549 56.1033 3.96549C54.9767 3.96549 53.9403 4.24338 52.994 4.79915C52.0627 5.3399 51.3192 6.07593 50.7634 7.00722C50.2076 7.93852 49.9297 8.97496 49.9297 10.1165V23.2974H46.1445V1.8813H49.9297V3.58246C50.7258 2.531 51.7322 1.69734 52.9489 1.08148C54.1656 0.450606 55.4875 0.135169 56.9144 0.135169C58.5968 0.135169 60.1289 0.548242 61.5108 1.37439C62.9078 2.18552 64.0118 3.28204 64.8229 4.66396C65.6491 6.04589 66.0622 7.58553 66.0622 9.28289Z" fill="var(--fill-0, white)"/>
<path id="Vector_4" d="M40.0151 1.97089H43.8004V23.2974H40.0151L39.8574 19.4896C39.1514 20.7964 38.175 21.8554 36.9283 22.6665C35.6966 23.4776 34.2246 23.8832 32.5122 23.8832C30.8599 23.8832 29.3127 23.5753 27.8707 22.9594C26.4287 22.3285 25.1519 21.4648 24.0404 20.3683C22.9439 19.2568 22.0877 17.98 21.4718 16.538C20.856 15.096 20.548 13.5413 20.548 11.874C20.548 10.2668 20.8485 8.74964 21.4493 7.32266C22.0501 5.89568 22.8838 4.64894 23.9503 3.58246C25.0318 2.50096 26.2785 1.65979 27.6905 1.05895C29.1024 0.443095 30.6195 0.135169 32.2418 0.135169C34.0143 0.135169 35.5689 0.555753 36.9058 1.39692C38.2426 2.22307 39.3241 3.29706 40.1503 4.6189L40.0151 1.97089ZM32.4446 20.2106C33.9316 20.2106 35.2159 19.8501 36.2974 19.1291C37.394 18.3931 38.2351 17.4017 38.8209 16.1549C39.4218 14.9082 39.7222 13.5338 39.7222 12.0317C39.7222 10.4996 39.4218 9.11766 38.8209 7.88594C38.2201 6.63921 37.3714 5.65534 36.2749 4.93434C35.1934 4.19832 33.9166 3.8303 32.4446 3.8303C30.9575 3.8303 29.6056 4.19832 28.3889 4.93434C27.1723 5.67036 26.2034 6.66174 25.4824 7.90848C24.7764 9.14019 24.4234 10.5146 24.4234 12.0317C24.4234 13.5488 24.7914 14.9307 25.5275 16.1775C26.2635 17.4092 27.2398 18.3931 28.4565 19.1291C29.6732 19.8501 31.0026 20.2106 32.4446 20.2106Z" fill="var(--fill-0, white)"/>
<path id="Vector_5" d="M13.0682 23.2974H8.22393L0 0.721006H4.03311L10.6348 18.9038L17.2365 0.721006H21.2696L13.0682 23.2974Z" fill="var(--fill-0, white)"/>
</g>
</svg>
